# xmcd
#
# Track frame offsets:
#	150
#	12337
#	25480
#	43137
#	65025
#	78400
#
# Disc length: 1282 seconds
#
# Revision: 1
# Processed by: cddbd v1.5.2PL0 Copyright (c) Steve Scherf et al.
# Submitted via: audiograbber 1.83.01
#
DISCID=4c050006
DTITLE=Queen Z Blues Band - Somebody will know
DYEAR=1995
DGENRE=Blues
TTITLE0=I am in the mood
TTITLE1=Scratch my back
TTITLE2=Dr. Feelgood
TTITLE3=Just got back from baby's
TTITLE4=Wise to you baby
TTITLE5=Some body will know someday
EXTD=Riet van der Zanden, Queen Z: Vocals\nPol Pablo Hendriks: Vokals and harmoni
EXTD=ca\nFrank van Osch: Guitars\nMark Jansen: Piano and keys\nAd van de Ven: Bas
EXTD=s\nKarin Waterschoot: Drums
EXTT0=
EXTT1=
EXTT2=
EXTT3=
EXTT4=
EXTT5=
PLAYORDER=
